<svg xmlns="http://www.w3.org/2000/svg" viewBox="0 0 409.6 409.6"><g id="Layer_2" data-name="Layer 2"><g id="Layer_1-2" data-name="Layer 1"><path d="M298.73,0H110.87A111,111,0,0,0,0,110.88V298.73A111,111,0,0,0,110.87,409.6H298.73A111,111,0,0,0,409.6,298.73V110.88A111,111,0,0,0,298.73,0ZM204.8,316.8a112,112,0,1,1,112-112,112.13,112.13,0,0,1-112,112ZM319.48,119.22a33.1,33.1,0,1,1,33.09-33.1,33.14,33.14,0,0,1-33.09,33.1Z" fill="#ff3838"/><path d="M204.8,116.82a88,88,0,1,0,88,88,88.08,88.08,0,0,0-88-88Z" fill="#ff3838"/><path d="M319.48,77a9.08,9.08,0,1,0,9.08,9.08A9.1,9.1,0,0,0,319.48,77Z" fill="#ff3838"/></g></g></svg>